# xmcd
#
# Track frame offsets: 
#        150
#        18312
#        42590
#        62135
#        83837
#        100800
#        118385
#        137852
#        155005
#        175560
#        201067
#
# Disc length: 2841 seconds
#
# Revision: 0
# Processed by: cddbd v1.5.2PL0 Copyright (c) Steve Scherf et al.
# Submitted via: ExactAudioCopyFreeDBPlugin 1.0
#
DISCID=960b170b
DTITLE=Preston Shannon - All In Time
DYEAR=1999
DGENRE=Blues
TTITLE0=01 Track -  01 Track
TTITLE1=02 Track -  02 Track
TTITLE2=03 Track -  03 Track
TTITLE3=04 Track -  04 Track
TTITLE4=05 Track -  05 Track
TTITLE5=06 Track -  06 Track
TTITLE6=07 Track -  07 Track
TTITLE7=08 Track -  08 Track
TTITLE8=09 Track -  09 Track
TTITLE9=10 Track -  10 Track
TTITLE10=11 Track -  11 Track
EXTD=
EXTT0=
EXTT1=
EXTT2=
EXTT3=
EXTT4=
EXTT5=
EXTT6=
EXTT7=
EXTT8=
EXTT9=
EXTT10=
PLAYORDER=
